<svg width="23" height="23" viewBox="0 0 23 23" fill="none" xmlns="http://www.w3.org/2000/svg">
<g clip-path="url(#clip0_115_16)">
<path d="M17.675 22.9999C7.91844 22.9865 0.01288 15.0659 0 5.2899C0.0270658 3.85919 0.598456 2.49824 1.58855 1.50625C2.57864 0.514256 3.90639 -0.0275677 5.27988 -0.000103218C5.57637 -0.00242856 5.8724 0.0245254 6.164 0.0803969C6.44567 0.121927 6.72292 0.191238 6.992 0.287397C7.17793 0.350601 7.34469 0.463517 7.47562 0.614867C7.60655 0.766217 7.69706 0.950703 7.73812 1.1499L9.3104 8.0499C9.35184 8.23748 9.34618 8.43302 9.29397 8.61767C9.24176 8.80231 9.14476 8.96983 9.01232 9.10406C8.19159 9.67134 7.33041 10.1724 6.43632 10.6029C7.30204 12.6384 10.0363 15.6437 12.2231 16.3366C13.0272 15.2901 13.7871 14.1986 13.9472 14.0491C14.0869 13.914 14.256 13.8162 14.4399 13.7641C14.6239 13.712 14.8172 13.7072 15.0034 13.7501L21.8868 15.3332C22.0743 15.3747 22.2485 15.465 22.3934 15.5957C22.5382 15.7265 22.6488 15.8933 22.7148 16.0807C22.8115 16.3532 22.8845 16.6341 22.9328 16.9202C22.9791 17.2091 23.0021 17.5014 23.0018 17.7942C22.9521 19.2182 22.3645 20.5641 21.3669 21.539C20.3693 22.5139 19.0424 23.039 17.675 22.9999Z" fill="#A7B0BA"/>
</g>
<defs>
<clipPath id="clip0_115_16">
<rect width="23" height="23" fill="white"/>
</clipPath>
</defs>
</svg>
