<svg width="33" height="26" viewBox="0 0 33 26" fill="none" xmlns="http://www.w3.org/2000/svg">
<g clip-path="url(#clip0_115_36)">
<path d="M16 25.464C21.5228 25.464 26 20.9868 26 15.464C26 9.94114 21.5228 5.46399 16 5.46399C10.4772 5.46399 6 9.94114 6 15.464C6 20.9868 10.4772 25.464 16 25.464Z" fill="#586471"/>
<path d="M1.5 16.04C1.5 12.1838 3.03189 8.48549 5.75867 5.75871C8.48545 3.03193 12.1838 1.50004 16.04 1.50004C19.8961 1.5003 23.5941 3.03231 26.3207 5.75906C29.0472 8.48581 30.579 12.184 30.579 16.04" stroke="#586471" stroke-width="3" stroke-linecap="round"/>
<path opacity="0.313" d="M18.1681 17.538C20.3977 17.538 22.2051 15.7306 22.2051 13.501C22.2051 11.2714 20.3977 9.46399 18.1681 9.46399C15.9385 9.46399 14.1311 11.2714 14.1311 13.501C14.1311 15.7306 15.9385 17.538 18.1681 17.538Z" fill="#C6D1DD"/>
<path opacity="0.19" d="M21.7569 13.95C22.9957 13.95 23.9999 12.9458 23.9999 11.707C23.9999 10.4682 22.9957 9.46399 21.7569 9.46399C20.5181 9.46399 19.5139 10.4682 19.5139 11.707C19.5139 12.9458 20.5181 13.95 21.7569 13.95Z" fill="white"/>
</g>
<defs>
<clipPath id="clip0_115_36">
<rect width="32.079" height="25.464" fill="white"/>
</clipPath>
</defs>
</svg>
