<svg width="18" height="26" viewBox="0 0 18 26" fill="none" xmlns="http://www.w3.org/2000/svg">
<g clip-path="url(#clip0_156_76)">
<path d="M9.04968 21.7037C9.38376 21.7037 10.4573 21.2215 11.993 19.6843C14.4331 17.2537 17.2814 12.9826 17.2814 8.9621C17.2814 6.55907 16.4091 4.25447 14.8563 2.55528C13.3035 0.856086 11.1974 -0.0985107 9.00144 -0.0985107C6.80545 -0.0985107 4.6994 0.856086 3.1466 2.55528C1.5938 4.25447 0.72144 6.55907 0.72144 8.9621C0.72 15.2793 7.51824 21.5697 9.04968 21.7037ZM9 3.62343C9.77004 3.63291 10.5203 3.89144 11.1564 4.36648C11.7924 4.84152 12.2859 5.51184 12.5745 6.29307C12.8632 7.0743 12.9343 7.93152 12.7788 8.75684C12.6232 9.58216 12.2481 10.3387 11.7005 10.9312C11.153 11.5237 10.4574 11.9258 9.70153 12.0867C8.94563 12.2477 8.1631 12.1603 7.45245 11.8357C6.74181 11.5111 6.1348 10.9636 5.70783 10.2623C5.28086 9.56104 5.05301 8.7372 5.05296 7.89452C5.05886 6.75541 5.47801 5.66551 6.2182 4.86454C6.9584 4.06358 7.95903 3.61714 9 3.62343ZM18 23.5426C18 24.3777 14.8255 26 9 26C3.17448 26 0 24.3785 0 23.5426C0 22.984 1.48608 21.9479 4.79736 21.4153C4.85476 21.4054 4.91039 21.3857 4.96224 21.357C6.51456 22.943 8.03376 23.9617 8.95032 24.0358H9.06624C10.3046 24.0358 12.109 22.3875 12.8354 21.6635C12.9262 21.5745 13.0169 21.476 13.1076 21.3775C13.1388 21.3885 13.1705 21.3974 13.2026 21.4043C16.5139 21.9479 18 22.9824 18 23.5426Z" fill="#586471"/>
</g>
<defs>
<clipPath id="clip0_156_76">
<rect width="18" height="26" fill="white"/>
</clipPath>
</defs>
</svg>
