<svg width="25" height="21" viewBox="0 0 25 21" fill="none" xmlns="http://www.w3.org/2000/svg">
<g clip-path="url(#clip0_115_20)">
<path d="M20 6.22217H4.99996C3.42201 6.22217 2.14282 7.61506 2.14282 9.33328V17.8888C2.14282 19.6071 3.42201 20.9999 4.99996 20.9999H20C21.5779 20.9999 22.8571 19.6071 22.8571 17.8888V9.33328C22.8571 7.61506 21.5779 6.22217 20 6.22217Z" fill="#A7B0BA"/>
<path d="M16.0716 5.05551C16.0716 2.90774 14.4726 1.16663 12.5001 1.16663C10.5277 1.16663 8.92871 2.90774 8.92871 5.05551V5.83329C8.92871 7.98107 10.5277 9.72218 12.5001 9.72218C14.4726 9.72218 16.0716 7.98107 16.0716 5.83329V5.05551Z" stroke="#A7B0BA" stroke-width="3"/>
</g>
<defs>
<clipPath id="clip0_115_20">
<rect width="25" height="21" fill="white"/>
</clipPath>
</defs>
</svg>
