<svg width="30" height="30" viewBox="0 0 30 30" fill="none" xmlns="http://www.w3.org/2000/svg">
<path d="M21.7509 0H3.24963V30H26.7503V4.99937L21.7509 0Z" fill="#E8E8E8"/>
<path d="M22.7594 14.8358C22.3989 14.1933 21.1534 13.9915 20.5819 13.9006C20.1315 13.829 19.6717 13.8076 19.2162 13.808C18.8585 13.8056 18.506 13.8233 18.1581 13.843C18.0299 13.8516 17.9029 13.8627 17.7761 13.8737C17.646 13.7391 17.5204 13.6001 17.3988 13.4579C16.625 12.542 16.0002 11.5032 15.4911 10.4238C15.6263 9.90222 15.7345 9.3579 15.7998 8.79261C15.919 7.76087 15.96 6.58507 15.5734 5.60142C15.4399 5.26193 15.084 4.84862 14.6733 5.05444C14.2013 5.29112 14.0685 5.96169 14.03 6.43704C13.999 6.82126 14.0207 7.20647 14.0852 7.58425C14.1509 7.96461 14.2567 8.32577 14.3718 8.68644C14.4793 9.01712 14.5977 9.34524 14.7269 9.67028C14.6449 9.92616 14.558 10.1776 14.4666 10.4226C14.2537 10.981 14.0234 11.5114 13.802 12.0217C13.6852 12.2747 13.5709 12.5224 13.4591 12.7645C13.1053 13.5417 12.7212 14.3047 12.2901 15.0423C11.2844 15.397 10.382 15.8083 9.6326 16.2915C9.23057 16.5513 8.87545 16.8334 8.57969 17.1428C8.30046 17.4349 8.01667 17.8139 7.99184 18.2336C7.97788 18.4705 8.07169 18.7003 8.26573 18.8408C8.53259 19.0402 8.88623 19.027 9.19584 18.962C10.2101 18.7493 10.9889 17.8775 11.6521 17.1427C12.109 16.6366 12.629 15.9939 13.1729 15.2166C13.1741 15.2149 13.1753 15.2131 13.1765 15.2113C14.1094 14.9221 15.1247 14.6779 16.2023 14.4984C16.6946 14.4167 17.1999 14.35 17.7153 14.3031C18.0778 14.6425 18.4694 14.9517 18.8967 15.2098C19.2294 15.4145 19.5834 15.5874 19.9538 15.7163C20.3284 15.8387 20.7053 15.9387 21.0945 16.0019C21.291 16.03 21.492 16.0428 21.6973 16.035C22.1555 16.0177 22.8132 15.842 22.8564 15.286C22.8696 15.1158 22.8329 14.9666 22.7594 14.8358ZM11.7891 15.8559C11.5745 16.1884 11.3675 16.4874 11.1724 16.7505C10.6948 17.4004 10.1493 18.1723 9.3595 18.461C9.2095 18.5158 9.01199 18.5724 8.80381 18.5601C8.61838 18.5492 8.43552 18.4674 8.44393 18.2568C8.44809 18.1466 8.50201 18.006 8.58474 17.8679C8.67527 17.7164 8.78738 17.5775 8.90879 17.4497C9.16893 17.1764 9.49783 16.9115 9.87621 16.6662C10.4565 16.2897 11.1494 15.9508 11.9217 15.6485C11.8772 15.7187 11.8329 15.7886 11.7891 15.8559ZM14.4827 7.51855C14.4231 7.17084 14.4141 6.81829 14.4507 6.47929C14.4689 6.3098 14.5034 6.14435 14.5534 5.9893C14.5958 5.8577 14.6872 5.53651 14.833 5.49525C15.0735 5.42717 15.1474 5.94339 15.1746 6.08944C15.3296 6.92021 15.193 7.84409 15.0071 8.65903C14.9775 8.78865 14.9446 8.9162 14.9108 9.04325C14.8532 8.88483 14.7983 8.72592 14.7477 8.56622C14.6389 8.21742 14.5394 7.86457 14.4827 7.51855ZM16.1334 14.0769C15.23 14.2233 14.3707 14.4152 13.5628 14.6417C13.6601 14.6144 14.1046 13.7721 14.2037 13.5973C14.6709 12.7745 15.053 11.911 15.3276 11.0051C15.8124 11.964 16.4009 12.8814 17.1238 13.6979C17.1904 13.772 17.2581 13.8452 17.3269 13.9175C16.9218 13.9612 16.5232 14.0143 16.1334 14.0769ZM22.2429 15.234C22.2098 15.4126 21.8284 15.5147 21.6504 15.5428C21.1244 15.6255 20.5679 15.5593 20.0644 15.3902C19.719 15.2742 19.3859 15.1163 19.0693 14.9263C18.7547 14.7362 18.4603 14.5126 18.1851 14.266C18.5244 14.2457 18.8679 14.2323 19.213 14.2388C19.5581 14.2423 19.9059 14.2597 20.2495 14.3045C20.8937 14.3764 21.6157 14.5975 22.1228 15.0156C22.2226 15.098 22.2545 15.1708 22.2429 15.234Z" fill="#FB3449"/>
<path d="M22.5246 2.49974H3.24963V0H21.7509L22.5246 2.49974Z" fill="#FB3449"/>
<path d="M12.5508 23.8616C12.5508 24.3921 12.3944 24.8017 12.0815 25.0907C11.7687 25.3797 11.3244 25.5242 10.7485 25.5242H10.388V27.0991H9.10547V22.3517H10.7486C11.3482 22.3517 11.7985 22.4827 12.0995 22.7446C12.4004 23.0065 12.5508 23.3789 12.5508 23.8616ZM10.3881 24.4786H10.622C10.8146 24.4786 10.9678 24.4246 11.0815 24.3162C11.1952 24.208 11.252 24.0585 11.252 23.8681C11.252 23.5477 11.0744 23.3875 10.7194 23.3875H10.3881V24.4786Z" fill="#A4A9AD"/>
<path d="M17.3372 24.6247C17.3372 25.417 17.1191 26.0275 16.6829 26.4562C16.2467 26.8848 15.6335 27.0991 14.8434 27.0991H13.3074V22.3517H14.9505C15.7125 22.3517 16.3008 22.5465 16.7154 22.9362C17.1299 23.3258 17.3372 23.8888 17.3372 24.6247ZM16.0059 24.6702C16.0059 24.2351 15.9198 23.9126 15.7477 23.7025C15.5757 23.4926 15.3142 23.3876 14.9635 23.3876H14.5901V26.047H14.8759C15.2657 26.047 15.5513 25.9339 15.7332 25.7076C15.915 25.4815 16.0059 25.1357 16.0059 24.6702Z" fill="#A4A9AD"/>
<path d="M19.4513 27.0991H18.1881V22.3517H20.9938V23.381H19.4513V24.287H20.8736V25.3164H19.4513V27.0991Z" fill="#A4A9AD"/>
<path d="M21.751 4.99937H26.7504L21.751 0V4.99937Z" fill="#D1D3D3"/>
</svg>
