<svg width="30" height="30" viewBox="0 0 30 30" fill="none" xmlns="http://www.w3.org/2000/svg">
<g clip-path="url(#clip0_115_29)">
<path d="M25 0H5C2.23858 0 0 2.23858 0 5V25C0 27.7614 2.23858 30 5 30H25C27.7614 30 30 27.7614 30 25V5C30 2.23858 27.7614 0 25 0Z" fill="#2D343D"/>
<path d="M25 1H5C2.79086 1 1 2.79086 1 5V25C1 27.2091 2.79086 29 5 29H25C27.2091 29 29 27.2091 29 25V5C29 2.79086 27.2091 1 25 1Z" stroke="#586471" stroke-width="2"/>
</g>
<defs>
<clipPath id="clip0_115_29">
<rect width="30" height="30" fill="white"/>
</clipPath>
</defs>
</svg>
